<svg xmlns="http://www.w3.org/2000/svg" width="61.153" height="61.153" viewBox="0 0 61.153 61.153"><defs><style>.a{fill:#ff6d15;}.b{fill:#ffd12b;}.c{fill:#80d398;}.d{fill:#c91c24;}</style></defs><path class="a" d="M9.787,401.668h-3.2A6.6,6.6,0,0,0,0,408.257v4.8a1.791,1.791,0,0,0,1.792,1.792H14.585a1.791,1.791,0,0,0,1.792-1.792v-4.8A6.6,6.6,0,0,0,9.787,401.668Zm0,0" transform="translate(0 -353.693)"/><path class="b" d="M116.9,321.332h-3.2a6.6,6.6,0,0,0-6.589,6.589v14.392a1.792,1.792,0,0,0,1.792,1.792h12.794a1.792,1.792,0,0,0,1.792-1.792V327.921A6.6,6.6,0,0,0,116.9,321.332Zm0,0" transform="translate(-94.316 -282.952)"/><path class="c" d="M224.01,241h-3.2a6.6,6.6,0,0,0-6.589,6.589v23.987a1.791,1.791,0,0,0,1.792,1.792h12.793a1.791,1.791,0,0,0,1.792-1.792V247.589A6.6,6.6,0,0,0,224.01,241Zm0,0" transform="translate(-188.636 -212.215)"/><path class="d" d="M296.595,18,283.8.725a1.792,1.792,0,0,0-2.879,0L268.129,18a1.792,1.792,0,0,0,1.439,2.858h4.6V59.361a1.792,1.792,0,0,0,1.792,1.792h12.794a1.791,1.791,0,0,0,1.792-1.792V20.854h4.605A1.792,1.792,0,0,0,296.595,18Zm0,0" transform="translate(-235.794)"/></svg>