<svg xmlns="http://www.w3.org/2000/svg" width="24" height="24" viewBox="0 0 24 24"><defs><style>.a{fill:none;}.b{fill:#585858;}</style></defs><g transform="translate(-0.31)"><rect class="a" width="24" height="24" transform="translate(0.31)"/><path class="b" d="M8.209,15.959a.417.417,0,0,0-.383-.245.41.41,0,0,0-.377.233l-.289.577a.6.6,0,0,1-1.109-.079l-.633-1.9-.4,1.2a1.624,1.624,0,0,1-1.543,1.111H3.01a.6.6,0,1,1,0-1.2h.466a.422.422,0,0,0,.4-.288l.684-2.056a.9.9,0,0,1,1.714,0L6.8,14.876a1.689,1.689,0,0,1,2.483.533.427.427,0,0,0,.352.236v-3.09l4.816-4.782V6.02H9.332a.906.906,0,0,1-.9-.9V0H.9A.9.9,0,0,0,0,.9V18.362a.9.9,0,0,0,.9.9H13.546a.9.9,0,0,0,.9-.9V16.857l-4.816,0A1.616,1.616,0,0,1,8.209,15.959Zm6.24-11.373a.9.9,0,0,0-.263-.636L10.5.263A.9.9,0,0,0,9.862,0h-.23V4.816h4.816Zm-3.612,8.468v2.6h2.6l6.084-6.125L16.962,6.974ZM21.393,6.3l-1.2-1.2a.958.958,0,0,0-1.355,0L17.813,6.122l2.554,2.554,1.025-1.025a.958.958,0,0,0,0-1.355Z" transform="translate(1.956 2.485)"/></g></svg>