<svg xmlns="http://www.w3.org/2000/svg" width="24" height="24" viewBox="0 0 24 24"><defs><style>.a{fill:#585858;}.b{fill:rgba(0,0,0,0);stroke:#585858;stroke-linecap:round;stroke-linejoin:round;stroke-width:2px;}.c{fill:none;}</style></defs><g transform="translate(-2984 4056)"><g transform="translate(2984 -4056)"><path class="a" d="M2,0H18a2,2,0,0,1,2,2V12a2,2,0,0,1-2,2H2a2,2,0,0,1-2-2V2A2,2,0,0,1,2,0Z" transform="translate(2 7)"/><path class="b" d="M16,21V5a2,2,0,0,0-2-2H10A2,2,0,0,0,8,5V21"/></g><g transform="translate(2984 -4056)"><rect class="c" width="24" height="24"/></g></g></svg>