<svg xmlns="http://www.w3.org/2000/svg" width="62.969" height="49.686" viewBox="0 0 62.969 49.686"><defs><style>.a{fill:#fff7c7;}.b{fill:#c91c24;}.c{fill:#816d00;}</style></defs><g transform="translate(0 -54)"><path class="a" d="M101.775,156.75H60.7A1.627,1.627,0,0,1,59,155.2v-22.66A1.627,1.627,0,0,1,60.7,131h41.078a1.627,1.627,0,0,1,1.7,1.545V155.2A1.627,1.627,0,0,1,101.775,156.75Z" transform="translate(-49.83 -65.032)"/><path class="b" d="M431.127,68.455a2.332,2.332,0,0,1-2.331-2.331V58.663h-7.46a2.331,2.331,0,1,1,0-4.663h9.792a2.332,2.332,0,0,1,2.331,2.331v9.792A2.332,2.332,0,0,1,431.127,68.455Z" transform="translate(-370.49)"/><path class="b" d="M12.123,379.455H2.331A2.332,2.332,0,0,1,0,377.124v-9.792a2.331,2.331,0,1,1,4.663,0v7.461h7.46a2.331,2.331,0,0,1,0,4.663Z" transform="translate(0 -275.769)"/><path class="b" d="M431.127,379.455h-9.792a2.331,2.331,0,0,1,0-4.663h7.46v-7.461a2.331,2.331,0,1,1,4.663,0v9.792A2.332,2.332,0,0,1,431.127,379.455Z" transform="translate(-370.49 -275.769)"/><path class="c" d="M181.332,308.242A2.332,2.332,0,0,1,179,305.911v-.629a2.331,2.331,0,0,1,4.663,0v.629A2.332,2.332,0,0,1,181.332,308.242Z" transform="translate(-157.348 -219.076)"/><path class="c" d="M241.332,308.242A2.332,2.332,0,0,1,239,305.911v-.629a2.331,2.331,0,1,1,4.663,0v.629A2.332,2.332,0,0,1,241.332,308.242Z" transform="translate(-210.09 -219.076)"/><path class="c" d="M301.331,308.242A2.332,2.332,0,0,1,299,305.911v-.629a2.331,2.331,0,1,1,4.663,0v.629A2.332,2.332,0,0,1,301.331,308.242Z" transform="translate(-262.831 -219.076)"/><path class="b" d="M2.335,68.455A2.332,2.332,0,0,1,0,66.124V56.331A2.332,2.332,0,0,1,2.335,54h9.792a2.331,2.331,0,1,1,0,4.663H4.667v7.461A2.332,2.332,0,0,1,2.335,68.455Z" transform="translate(-0.003)"/><path class="c" d="M119,131v29.554a2.331,2.331,0,1,0,4.663,0V131Z" transform="translate(-104.606 -70.107)"/><path class="c" d="M179,131v21.139a2.331,2.331,0,0,0,4.663,0V131Z" transform="translate(-157.348 -69.021)"/><path class="c" d="M239,131v21.139a2.331,2.331,0,0,0,4.663,0V131Z" transform="translate(-210.09 -69.021)"/><path class="c" d="M303.663,131H299v21.139a2.331,2.331,0,0,0,4.663,0Z" transform="translate(-262.831 -69.021)"/><path class="c" d="M363.664,131H359v29.554a2.331,2.331,0,1,0,4.663,0Z" transform="translate(-315.574 -70.107)"/><path class="b" d="M71.837,230.663H17.313a2.405,2.405,0,0,1,0-4.663H71.837a2.405,2.405,0,0,1,0,4.663Z" transform="translate(-13.091 -151.294)"/><path class="b" d="M291.05,226H256v4.663h35.05a2.331,2.331,0,0,0,0-4.663Z" transform="translate(-232.822 -151.294)"/></g></svg>