<svg xmlns="http://www.w3.org/2000/svg" width="72" height="72" viewBox="0 0 72 72"><defs><style>.a{fill:rgba(255,255,255,0);}.b{fill:#7bd0a7;}.c{fill:#70bd98;}.d{fill:#fff;}.e{fill:#eeeeed;}.f{fill:#495059;}.g{fill:#950007;}.h{fill:#f8e47c;}.i{fill:#c91c24;}.j{fill:#fff7c7;}</style></defs><g transform="translate(-126 -33)"><rect class="a" width="72" height="72" transform="translate(126 33)"/><g transform="translate(134.5 37.999)"><path class="b" d="M46.866,9.6,36.872,37.062a3.347,3.347,0,0,1-4.289,2L18.539,33.95a3.346,3.346,0,0,1-2-4.289L26.533,2.2a3.347,3.347,0,0,1,4.289-2L44.866,5.315A3.346,3.346,0,0,1,46.866,9.6Zm0,0" transform="translate(-13.92 0)"/><path class="c" d="M23.072,96.793l-6.532,17.948a3.346,3.346,0,0,0,2,4.289l14.044,5.111a3.346,3.346,0,0,0,4.289-2l4.2-11.53C30,110.867,24.823,103.3,23.072,96.793Zm0,0" transform="translate(-13.92 -85.08)"/><path class="d" d="M107.293,120.459a5.752,5.752,0,1,1-5.752-5.751A5.752,5.752,0,0,1,107.293,120.459Zm0,0" transform="translate(-83.759 -100.826)"/><path class="e" d="M95.942,151.34a5.75,5.75,0,0,0,8.427,6.325A16.312,16.312,0,0,1,95.942,151.34Zm0,0" transform="translate(-83.757 -133.026)"/><path class="c" d="M93.034,2.2,91.992,5.066a6.393,6.393,0,0,0,8.194-3.821L97.323.2A3.346,3.346,0,0,0,93.034,2.2Zm0,0" transform="translate(-80.421 0)"/><path class="c" d="M230.491,40.636,229.449,43.5a6.393,6.393,0,0,1-3.821-8.194l2.863,1.042A3.346,3.346,0,0,1,230.491,40.636Zm0,0" transform="translate(-197.546 -31.032)"/><path class="b" d="M16.539,224.32l1.042-2.863a6.393,6.393,0,0,1,3.821,8.194l-2.863-1.042A3.346,3.346,0,0,1,16.539,224.32Zm0,0" transform="translate(-13.92 -194.659)"/><path class="b" d="M134.09,282.666l1.042-2.863a6.393,6.393,0,0,0-8.194,3.821l2.863,1.042A3.347,3.347,0,0,0,134.09,282.666Zm0,0" transform="translate(-111.138 -245.605)"/><path class="f" d="M162.843,64.82a.908.908,0,0,1-.853-1.218l1-2.751a.907.907,0,0,1,1.705.621l-1,2.75A.907.907,0,0,1,162.843,64.82Zm0,0" transform="translate(-141.901 -52.962)"/><path class="f" d="M102.34,231.058a.908.908,0,0,1-.853-1.218l1-2.751a.907.907,0,1,1,1.705.621l-1,2.75A.908.908,0,0,1,102.34,231.058Zm0,0" transform="translate(-88.719 -199.085)"/><path class="g" d="M139.865,36.9,117.13,59.639a3.682,3.682,0,0,1-5.207,0L100.3,48.011a3.682,3.682,0,0,1,0-5.207L123.03,20.069a3.682,3.682,0,0,1,5.207,0L139.865,31.7A3.682,3.682,0,0,1,139.865,36.9Zm0,0" transform="translate(-86.772 -16.692)"/><path class="g" d="M111.451,123.6,100.3,134.753a3.682,3.682,0,0,0,0,5.207l11.628,11.628a3.682,3.682,0,0,0,5.207,0l10.9-10.9C112.477,139.736,109.942,130.756,111.451,123.6Zm0,0" transform="translate(-86.772 -108.641)"/><path class="d" d="M266.164,94.06a2.838,2.838,0,1,1-2.838-2.837A2.838,2.838,0,0,1,266.164,94.06Zm0,0" transform="translate(-228.529 -80.184)"/><path class="h" d="M299.328,60.893a2.838,2.838,0,1,1-2.838-2.838A2.838,2.838,0,0,1,299.328,60.893Zm0,0" transform="translate(-257.68 -51.029)"/><path class="h" d="M334.424,129.7,332.131,132a1.217,1.217,0,0,1-1.721,0l-1.36-1.361a1.216,1.216,0,0,1,0-1.721l2.292-2.292a1.217,1.217,0,0,1,1.721,0l1.36,1.36A1.216,1.216,0,0,1,334.424,129.7Zm0,0" transform="translate(-288.48 -110.987)"/><path class="d" d="M138.286,172.628l-11.247,11.247-3.079-3.079,12.649-12.649a.924.924,0,0,1,1.469.216l.656,1.221A2.578,2.578,0,0,1,138.286,172.628Zm0,0" transform="translate(-108.522 -147.562)"/><path class="e" d="M133.752,193.707l-9.795,9.794,3.079,3.079,9.173-9.173A11.267,11.267,0,0,1,133.752,193.707Zm0,0" transform="translate(-108.518 -170.267)"/><path class="f" d="M205.386,255.744a.907.907,0,0,1-.642-1.549l4.385-4.385a.907.907,0,0,1,1.283,1.283l-4.384,4.385A.905.905,0,0,1,205.386,255.744Zm0,0" transform="translate(-179.296 -219.348)"/><path class="i" d="M41.953,251.512H5.921A5.42,5.42,0,0,1,.5,246.091V221.073a5.421,5.421,0,0,1,5.421-5.421H41.953a9.83,9.83,0,0,1,9.83,9.83v16.2A9.83,9.83,0,0,1,41.953,251.512Zm0,0" transform="translate(0 -189.557)"/><path class="i" d="M5.921,215.652A5.421,5.421,0,0,0,.5,221.073v25.018a5.421,5.421,0,0,0,5.421,5.421H25.63c-13.014-4.191-17.054-26.332-14.907-35.859Zm0,0" transform="translate(0 -189.557)"/><path class="j" d="M62.642,270.255H28.315a3.1,3.1,0,0,1-3.092-3.093V243.471a3.1,3.1,0,0,1,3.092-3.092H62.642a7.888,7.888,0,0,1,7.879,7.879v14.116A7.889,7.889,0,0,1,62.642,270.255ZM28.315,242.194a1.279,1.279,0,0,0-1.277,1.277v23.691a1.279,1.279,0,0,0,1.277,1.278H62.642a6.071,6.071,0,0,0,6.064-6.064V248.258a6.071,6.071,0,0,0-6.064-6.064Zm0,0" transform="translate(-21.731 -211.291)"/><path class="j" d="M272.017,395.164h-7.186a1.262,1.262,0,0,0-1.262,1.262v3.244a1.262,1.262,0,0,0,1.262,1.262h7.186a1.262,1.262,0,0,0,1.262-1.262v-3.244A1.262,1.262,0,0,0,272.017,395.164Zm0,0" transform="translate(-231.238 -347.347)"/></g></g></svg>