<svg xmlns="http://www.w3.org/2000/svg" width="72" height="72" viewBox="0 0 72 72"><defs><style>.a{fill:rgba(255,255,255,0);}.b{fill:#950007;}.c{fill:#e6e7e8;}.d{fill:#d8d7da;}.e{fill:#acabb1;}.f{fill:#d1d3d4;}.g{fill:#dedfe0;}.h{fill:#ffa733;}.i{fill:#bcbec0;}.j{fill:#3d9ae2;}.k{fill:#c91c24;}.l{fill:#ffb655;}.m{fill:#ff5023;}</style></defs><g transform="translate(-126 -33)"><rect class="a" width="72" height="72" transform="translate(126 33)"/><g transform="translate(129 36)"><rect class="b" width="42" height="50" rx="4" transform="translate(5 14)"/><path class="c" d="M42.771,18.055v40.1a1.055,1.055,0,0,1-1.055,1.055H17.443V52.881a2.117,2.117,0,0,0-2.111-2.111H9V18.055A1.055,1.055,0,0,1,10.055,17h31.66A1.055,1.055,0,0,1,42.771,18.055Z" transform="translate(0.221 0.775)"/><path class="d" d="M13,18H38.328v3.166H13Z" transform="translate(0.443 0.83)"/><path class="e" d="M38.328,17.775V18.83H13V16.719A4.231,4.231,0,0,1,17.221,12.5h3.166V7.221A4.221,4.221,0,0,1,24.609,3h2.111a4.221,4.221,0,0,1,4.221,4.221V12.5h3.166a4.231,4.231,0,0,1,4.221,4.221ZM27.775,9.332a2.111,2.111,0,1,0-2.111,2.111,2.111,2.111,0,0,0,2.111-2.111Z" transform="translate(0.443 0)"/><path class="f" d="M19.111,53.111v4.221H17V51a2.117,2.117,0,0,1,2.111,2.111Z" transform="translate(0.664 2.656)"/><path class="g" d="M17.443,57.443H10.055A1.055,1.055,0,0,1,9,56.387V49Z" transform="translate(0.221 2.545)"/><path class="h" d="M21.443,29.111v5.277a1.055,1.055,0,0,1-1.055,1.055H14.055A1.055,1.055,0,0,1,13,34.387V28.055A1.055,1.055,0,0,1,14.055,27h6.332a1.055,1.055,0,0,1,1.055,1.055Z" transform="translate(0.443 1.328)"/><path class="f" d="M41.664,54.439v2.111H30.055A1.055,1.055,0,0,1,29,55.494V33.332L33.221,27h.707l-2.818,4.221V53.383a1.055,1.055,0,0,0,1.055,1.055Z" transform="translate(1.328 1.328)"/><path class="i" d="M17.443,51.111v6.332L9,49h6.332A2.117,2.117,0,0,1,17.443,51.111Z" transform="translate(0.221 2.545)"/><path class="j" d="M41,53h4.221v2.111H41Z" transform="translate(1.992 2.766)"/><path class="k" d="M48,31H59.609v5.277H48Z" transform="translate(2.379 1.549)"/><path class="l" d="M31,36V52.885a1.055,1.055,0,0,0,1.055,1.055H59.494a1.055,1.055,0,0,0,1.055-1.055V36Z" transform="translate(1.439 1.826)"/><path class="k" d="M41.553,31H31v5.277H42.609V31Z" transform="translate(1.439 1.549)"/><path class="l" d="M56.328,25H35.221L31,31.332H60.549Z" transform="translate(1.439 1.217)"/><path class="c" d="M45.166,31H42V41.553l3.166-2.111,3.166,2.111V31Z" transform="translate(2.047 1.549)"/><path class="m" d="M18.15,33.316a1.055,1.055,0,0,1-.746-.309L15.293,30.9,16.785,29.4l1.365,1.365,3.475-3.475,1.492,1.492L18.9,33.007a1.055,1.055,0,0,1-.746.309Z" transform="translate(0.57 1.344)"/><g transform="translate(12.387 28.328)"><path class="i" d="M24,27h4.221v2.111H24Z" transform="translate(-11.336 -27)"/><path class="i" d="M24,30h4.221v2.111H24Z" transform="translate(-11.336 -26.834)"/><path class="i" d="M12,38h2.111v2.111H12Z" transform="translate(-12 -26.391)"/><path class="i" d="M16,38H26.553v2.111H16Z" transform="translate(-11.779 -26.391)"/><path class="i" d="M12,42H26.775v2.111H12Z" transform="translate(-12 -26.17)"/></g></g></g></svg>