<svg xmlns="http://www.w3.org/2000/svg" width="24" height="24" viewBox="0 0 24 24"><defs><style>.a{fill:none;}.b{fill:#585858;}</style></defs><g transform="translate(-0.31)"><rect class="a" width="24" height="24" transform="translate(0.31)"/><path class="b" d="M9.5.563a9.5,9.5,0,1,0,9.5,9.5A9.5,9.5,0,0,0,9.5.563ZM12.565,7a1.226,1.226,0,1,1-1.226,1.226A1.224,1.224,0,0,1,12.565,7ZM5.823,16.192a1.819,1.819,0,0,1-1.839-1.8c0-.766,1.092-2.314,1.594-2.98a.305.305,0,0,1,.49,0c.5.667,1.594,2.214,1.594,2.98A1.819,1.819,0,0,1,5.823,16.192ZM6.435,9.45A1.226,1.226,0,1,1,7.661,8.224,1.224,1.224,0,0,1,6.435,9.45Zm6.52,5.907A4.494,4.494,0,0,0,9.5,13.74a.613.613,0,0,1,0-1.226,5.7,5.7,0,0,1,4.394,2.061A.611.611,0,0,1,12.955,15.356Z" transform="translate(2.316 1.561)"/></g></svg>