<svg xmlns="http://www.w3.org/2000/svg" width="58.994" height="62.937" viewBox="0 0 58.994 62.937"><defs><style>.a{fill:#2196f3;}.b{fill:#ffc107;}.c{fill:#4caf50;}.d{fill:#f44336;}</style></defs><g transform="translate(-16.043 0)"><path class="a" d="M48.725,46.008,18.285,76.449a7.217,7.217,0,0,1-2.242-5.309V23.394a7.314,7.314,0,0,1,2.32-5.388Z" transform="translate(0 -15.793)"/><path class="b" d="M308.274,165.991a7.464,7.464,0,0,1-3.972,6.568l-8.652,4.8-10.737-9.911-2.95-2.714,11.366-11.366,10.973,6.057A7.464,7.464,0,0,1,308.274,165.991Z" transform="translate(-233.238 -134.517)"/><path class="c" d="M65.285,30.215l-30.362-28a7.83,7.83,0,0,1,1.416-1.062,7.918,7.918,0,0,1,8.023-.118L76.651,18.849Z" transform="translate(-16.56)"/><path class="d" d="M78.41,258.471,43.8,277.545a7.833,7.833,0,0,1-3.933,1.023,7.663,7.663,0,0,1-4.09-1.141,7.155,7.155,0,0,1-1.495-1.141l30.441-30.441,2.95,2.714Z" transform="translate(-15.998 -215.631)"/></g></svg>