<svg xmlns="http://www.w3.org/2000/svg" width="28.973" height="32" viewBox="0 0 28.973 32">
  <g id="file" transform="translate(0)">
    <path id="Path_8921" data-name="Path 8921" d="M15.324,5.056,14.543,0H3.093A3.068,3.068,0,0,0,0,3.058V24.223a3.045,3.045,0,0,0,3.093,3.03H13.955L21.78,15.672V7.413Zm0,0" fill="#4f84cf"/>
    <path id="Path_8922" data-name="Path 8922" d="M285.277.141l7.215,7.577h-4.8a2.41,2.41,0,0,1-2.412-2.412Zm0,0" transform="translate(-271.104 -0.133)" fill="#e1e6f0"/>
    <g id="Group_4585" data-name="Group 4585" transform="translate(4.313 12.368)">
      <path id="Path_8923" data-name="Path 8923" d="M94.57,318.676H85.319a.709.709,0,1,0,0,1.419h9.244a.709.709,0,0,0,.007-1.419Zm0,0" transform="translate(-84.609 -315.129)" fill="#66a9df"/>
      <path id="Path_8924" data-name="Path 8924" d="M85.319,250.517h7.187a.709.709,0,1,0,0-1.419H85.319a.709.709,0,1,0,0,1.419Zm0,0" transform="translate(-84.609 -249.098)" fill="#66a9df"/>
      <path id="Path_8925" data-name="Path 8925" d="M92.228,389.648h-6.91a.709.709,0,1,0,0,1.419h6.91a.709.709,0,1,0,0-1.419Zm0,0" transform="translate(-84.609 -382.483)" fill="#66a9df"/>
    </g>
    <path id="Path_8926" data-name="Path 8926" d="M234.914,285.093a9.02,9.02,0,1,1-1.263-.092,10.7,10.7,0,0,1,1.263.092Zm0,0" transform="translate(-213.724 -271.099)" fill="#fedb41"/>
  </g>
</svg>
