<svg xmlns="http://www.w3.org/2000/svg" width="32.016" height="32" viewBox="0 0 32.016 32">
  <g id="pos-terminal" transform="translate(0 -0.127)">
    <path id="Path_9032" data-name="Path 9032" d="M182.1,146.928v8.218a2.8,2.8,0,0,1-2.8,2.8H163.054a2.8,2.8,0,0,1-2.8-2.8v-8.218a2.8,2.8,0,0,1,2.8-2.8H179.3A2.8,2.8,0,0,1,182.1,146.928Z" transform="translate(-150.089 -134.942)" fill="#fedb41"/>
    <path id="Path_9033" data-name="Path 9033" d="M160.253,208.127H182.1v1.868H160.253Z" transform="translate(-150.089 -194.97)" fill="#6e75e2"/>
    <path id="Path_9034" data-name="Path 9034" d="M20.793,49.067V76.2a.937.937,0,0,1-.934.94H.934A.937.937,0,0,1,0,76.2V49.067a.937.937,0,0,1,.934-.94H19.859A.937.937,0,0,1,20.793,49.067Z" transform="translate(0 -45.012)" fill="#66a9df"/>
    <path id="Path_9035" data-name="Path 9035" d="M177.4,49.067V76.2a.937.937,0,0,1-.934.94H167V48.127h9.463A.937.937,0,0,1,177.4,49.067Z" transform="translate(-156.512 -45.012)" fill="#4f84cf"/>
    <path id="Path_9036" data-name="Path 9036" d="M76.824,177.061v4.482a.934.934,0,0,1-.934.934H64.934a.934.934,0,0,1-.934-.934v-4.482a.934.934,0,0,1,.934-.934H75.891A.934.934,0,0,1,76.824,177.061Z" transform="translate(-60.016 -164.962)" fill="#f6f9f9"/>
    <path id="Path_9037" data-name="Path 9037" d="M173.412,177.061v4.482a.934.934,0,0,1-.934.934H167v-6.35h5.478A.934.934,0,0,1,173.412,177.061Z" transform="translate(-156.527 -164.962)" fill="#e2dff4"/>
    <path id="Path_9038" data-name="Path 9038" d="M90.832,1.061v6.35a.934.934,0,0,1-.934.934H80.934A.934.934,0,0,1,80,7.411V1.061a.934.934,0,0,1,.934-.934H89.9a.934.934,0,0,1,.934.934Z" transform="translate(-74.975)" fill="#f6f9f9"/>
    <path id="Path_9039" data-name="Path 9039" d="M172.416,1.061v6.35a.934.934,0,0,1-.934.934H167V.127h4.482a.934.934,0,0,1,.934.934Z" transform="translate(-156.529)" fill="#e2dff4"/>
    <path id="Path_9040" data-name="Path 9040" d="M76.824,113.061a.934.934,0,0,1-.934.934H64.934a.934.934,0,1,1,0-1.868H75.891A.934.934,0,0,1,76.824,113.061Z" transform="translate(-60.016 -104.984)" fill="#6e75e2"/>
    <path id="Path_9041" data-name="Path 9041" d="M173.412,113.061a.934.934,0,0,1-.934.934H167v-1.868h5.478A.934.934,0,0,1,173.412,113.061Z" transform="translate(-156.527 -104.984)" fill="#3340d8"/>
    <path id="Path_9042" data-name="Path 9042" d="M146.864,313.06a.934.934,0,0,1-.934.934h-1a.934.934,0,1,1,0-1.868h1A.934.934,0,0,1,146.864,313.06Z" transform="translate(-134.977 -292.454)" fill="#6e75e2"/>
    <path id="Path_9043" data-name="Path 9043" d="M167.5,313.994H167v-1.868h.5a.934.934,0,1,1,0,1.868Z" transform="translate(-156.539 -292.454)" fill="#3340d8"/>
    <path id="Path_9044" data-name="Path 9044" d="M146.864,369.06a.934.934,0,0,1-.934.934h-1a.934.934,0,1,1,0-1.868h1A.934.934,0,0,1,146.864,369.06Z" transform="translate(-134.977 -344.946)" fill="#6e75e2"/>
    <path id="Path_9045" data-name="Path 9045" d="M168.432,369.06a.934.934,0,0,1-.934.934H167v-1.868h.5A.934.934,0,0,1,168.432,369.06Z" transform="translate(-156.539 -344.946)" fill="#3340d8"/>
    <path id="Path_9046" data-name="Path 9046" d="M146.864,425.06a.934.934,0,0,1-.934.934h-1a.934.934,0,1,1,0-1.868h1A.934.934,0,0,1,146.864,425.06Z" transform="translate(-134.977 -397.415)" fill="#6e75e2"/>
    <g id="Group_4745" data-name="Group 4745" transform="translate(10.473 19.738)">
      <path id="Path_9047" data-name="Path 9047" d="M168.432,425.06a.934.934,0,0,1-.934.934H167v-1.868h.5A.934.934,0,0,1,168.432,425.06Z" transform="translate(-167 -417.153)" fill="#3340d8"/>
      <path id="Path_9048" data-name="Path 9048" d="M225.93,313.994h-1a.934.934,0,0,1,0-1.868h1a.934.934,0,1,1,0,1.868Z" transform="translate(-220.451 -312.126)" fill="#3340d8"/>
      <path id="Path_9049" data-name="Path 9049" d="M225.93,369.994h-1a.934.934,0,0,1,0-1.868h1a.934.934,0,1,1,0,1.868Z" transform="translate(-220.451 -364.64)" fill="#3340d8"/>
    </g>
    <path id="Path_9050" data-name="Path 9050" d="M225.93,425.994h-1a.934.934,0,1,1,0-1.868h1a.934.934,0,1,1,0,1.868Z" transform="translate(-209.964 -397.415)" fill="#dc455b"/>
    <path id="Path_9051" data-name="Path 9051" d="M65.93,313.994h-1a.934.934,0,1,1,0-1.868h1a.934.934,0,0,1,0,1.868Z" transform="translate(-60.016 -292.454)" fill="#6e75e2"/>
    <path id="Path_9052" data-name="Path 9052" d="M65.93,369.994h-1a.934.934,0,1,1,0-1.868h1a.934.934,0,0,1,0,1.868Z" transform="translate(-60.016 -344.946)" fill="#6e75e2"/>
    <path id="Path_9053" data-name="Path 9053" d="M65.93,425.994h-1a.934.934,0,1,1,0-1.868h1a.934.934,0,1,1,0,1.868Z" transform="translate(-60.016 -397.415)" fill="#ace233"/>
  </g>
</svg>
