<svg xmlns="http://www.w3.org/2000/svg" xmlns:xlink="http://www.w3.org/1999/xlink" width="148.21" height="72.145" viewBox="0 0 148.21 72.145"><defs><style>.a{fill:none;}.b{clip-path:url(#a);}.c{fill:#e51e27;}.d,.e{fill:#fff;}.e{stroke:#000;stroke-miterlimit:10;stroke-width:0.637px;}.f{fill:#7f8080;}</style><clipPath id="a"><rect class="a" width="148.21" height="72.145"/></clipPath></defs><g class="b"><g transform="translate(0 14.63)"><path class="c" d="M104.762,62.3a2.15,2.15,0,0,0-3.031,0l-9.948,9.948,3.031,3.026,9.948-9.948a2.15,2.15,0,0,0,0-3.026" transform="translate(-41.87 -49.832)"/><path class="d" d="M40.28,64.508a2.021,2.021,0,0,1-2.015,2.015,6.132,6.132,0,0,0-6.132,6.127v8.115a2,2,0,0,1-4,0V72.65A10.136,10.136,0,0,1,38.265,62.525a1.994,1.994,0,0,1,2.015,1.983" transform="translate(-28.134 -50.016)"/><path class="d" d="M63.723,72.617A1.994,1.994,0,0,1,61.7,74.6H47.782A6.164,6.164,0,0,0,53.6,78.76a7.97,7.97,0,0,0,4.52-1.306,1.925,1.925,0,0,1,2.655.924,2.134,2.134,0,0,1-.973,2.687A9.846,9.846,0,0,1,53.6,82.8a10.125,10.125,0,0,1,0-20.251,9.94,9.94,0,0,1,10.125,10.12M47.782,70.65H59.439A5.889,5.889,0,0,0,53.6,66.533a6.186,6.186,0,0,0-5.815,4.117" transform="translate(-31.444 -50.02)"/><path class="d" d="M90.56,83.576a2.112,2.112,0,0,1-1.51-.634L73.109,67.033a2.15,2.15,0,0,1,3.026-3.026l15.94,15.93A2.15,2.15,0,0,1,90.56,83.6" transform="translate(-37.735 -50.231)"/><path class="d" d="M72.363,80.882a2.15,2.15,0,0,1-1.51-3.66l25.727-25.7a2.15,2.15,0,0,1,3.031,3.02L73.878,80.274a2.15,2.15,0,0,1-1.516.634" transform="translate(-37.22 -47.536)"/><path class="c" d="M51.722,55.325a21.385,21.385,0,0,1,6.847-5.992,21.7,21.7,0,0,1,8.916-2.687A22.573,22.573,0,0,1,76.9,47.893a23.2,23.2,0,0,1,8.234,5.154h0A2.15,2.15,0,1,1,82,55.96a19.348,19.348,0,0,0-14.463-6.987,19.95,19.95,0,0,0-8.357,1.575A20.761,20.761,0,0,0,52.055,55.6a.22.22,0,0,1-.312,0,.226.226,0,0,1,0-.29" transform="translate(-33.218 -46.573)"/><path class="e" d="M122.8,64.5a2.048,2.048,0,0,1-2.042,2.048,6.207,6.207,0,0,0-6.213,6.213v8.217a2.026,2.026,0,1,1-4.052,0V72.764A10.27,10.27,0,0,1,120.758,62.5a2.01,2.01,0,0,1,2.042,2Z" transform="translate(-45.909 -50.012)"/><path class="e" d="M146.626,72.715a2.015,2.015,0,0,1-2.048,2H130.455a6.234,6.234,0,0,0,5.912,4.214,8.062,8.062,0,0,0,4.579-1.349,1.939,1.939,0,0,1,2.687.941,2.137,2.137,0,0,1-.978,2.687,10,10,0,0,1-6.288,1.768,10.265,10.265,0,0,1,0-20.525A10.069,10.069,0,0,1,146.626,72.715Zm-16.172-2.048h11.824a5.972,5.972,0,0,0-5.912-4.171A6.25,6.25,0,0,0,130.455,70.667Z" transform="translate(-49.328 -50)"/><path class="e" d="M167.3,61.726a2.048,2.048,0,0,1-2.042,2.048h-2.9V78.2a2.026,2.026,0,1,1-4.047,0V63.774h-2.945a2.042,2.042,0,0,1-2-2.048,2,2,0,0,1,2-2h2.956V51.558a2.026,2.026,0,0,1,4.047,0v8.169h2.9a2.01,2.01,0,0,1,2.032,2Z" transform="translate(-55.16 -47.234)"/><path class="e" d="M192.329,72.9v8.013a1.972,1.972,0,0,1-2.048,2.042,2.15,2.15,0,0,1-1.962-2.042,8.9,8.9,0,0,1-6.052,2.042A10.042,10.042,0,0,1,171.928,72.9a10.276,10.276,0,0,1,10.34-10.346A10.042,10.042,0,0,1,192.329,72.9Zm-4.009,0a6.181,6.181,0,0,0-6.052-6.336,6.449,6.449,0,0,0-6.336,6.336,6.181,6.181,0,0,0,6.336,6.052A5.912,5.912,0,0,0,188.32,72.9Z" transform="translate(-59.167 -50.022)"/><path class="e" d="M202.627,55.606a2.107,2.107,0,0,1-.613-1.435,2.085,2.085,0,0,1,.613-1.43,1.983,1.983,0,0,1,2.865,0,2.026,2.026,0,0,1-2.865,2.865Zm-.613,23.137V62.264a2.026,2.026,0,0,1,4.047,0V78.742a2.026,2.026,0,1,1-4.047,0Z" transform="translate(-65.66 -47.773)"/><path class="e" d="M211.452,78.184V51.57a2.026,2.026,0,1,1,4.052,0V78.184a2.026,2.026,0,0,1-4.052,0Z" transform="translate(-67.698 -47.215)"/><path class="f" d="M69.063,95.168H70.8a3.423,3.423,0,0,1,.683.064,1.494,1.494,0,0,1,.537.226,1.182,1.182,0,0,1,.382.43,1.51,1.51,0,0,1,.14.683,1.612,1.612,0,0,1-.129.683,1.166,1.166,0,0,1-.36.441,1.548,1.548,0,0,1-.537.231,3.027,3.027,0,0,1-.683.07h-.747V99.8H69.063Zm1.021,1.962h.683a1.411,1.411,0,0,0,.263,0,.79.79,0,0,0,.231-.086.494.494,0,0,0,.161-.172.537.537,0,0,0,.064-.274.484.484,0,0,0-.081-.285.639.639,0,0,0-.21-.167,1.166,1.166,0,0,0-.285-.075h-.838Z" transform="translate(-36.967 -57.061)"/><path class="f" d="M74.175,97.459a2.548,2.548,0,0,1,.188-1.01,2.252,2.252,0,0,1,.537-.769,2.478,2.478,0,0,1,.763-.462,3.009,3.009,0,0,1,1.005-.167,2.977,2.977,0,0,1,1,.167,2.365,2.365,0,0,1,.79.489,2.188,2.188,0,0,1,.537.769,2.644,2.644,0,0,1,.188,1.01A2.617,2.617,0,0,1,79,98.491a2.15,2.15,0,0,1-.537.769,2.2,2.2,0,0,1-.79.489,2.848,2.848,0,0,1-1,.172,2.88,2.88,0,0,1-1.005-.172,2.3,2.3,0,0,1-.79-.489,2.2,2.2,0,0,1-.537-.769A2.52,2.52,0,0,1,74.175,97.459Zm1.075,0a1.612,1.612,0,0,0,.1.6,1.371,1.371,0,0,0,.29.473,1.3,1.3,0,0,0,.457.312,1.467,1.467,0,0,0,.591.107,1.489,1.489,0,0,0,.591-.107,1.279,1.279,0,0,0,.451-.312,1.381,1.381,0,0,0,.3-.473,1.757,1.757,0,0,0,.1-.6,1.779,1.779,0,0,0-.1-.6,1.408,1.408,0,0,0-.3-.478,1.268,1.268,0,0,0-.451-.306,1.489,1.489,0,0,0-.591-.113,1.467,1.467,0,0,0-.591.113,1.29,1.29,0,0,0-.457.306,1.392,1.392,0,0,0-.29.478,1.655,1.655,0,0,0-.118.6Z" transform="translate(-38.07 -57.036)"/><path class="f" d="M80.981,95.168h1.113l.742,2.972h0l.973-2.972h.946l.962,3.047h0l.779-3.047h1.037L86.178,99.8h-.914l-1.016-3.225h0L83.228,99.8h-.876Z" transform="translate(-39.539 -57.061)"/><path class="f" d="M90.159,95.168H93.3v.941h-2.15v.865h2.015v.957H91.153v.946H93.4v.941H90.138Z" transform="translate(-41.515 -57.061)"/><path class="f" d="M95.532,95.168h1.8a3.063,3.063,0,0,1,.677.075,1.542,1.542,0,0,1,.537.226,1.155,1.155,0,0,1,.382.435,1.462,1.462,0,0,1,.14.672,1.365,1.365,0,0,1-.258.838,1.182,1.182,0,0,1-.747.435l1.182,1.956H98l-.967-1.854h-.505v1.854H95.511Zm1.021,1.913h.914a.924.924,0,0,0,.279-.059.484.484,0,0,0,.2-.156.473.473,0,0,0,.081-.3.446.446,0,0,0-.253-.441.908.908,0,0,0-.258-.075,2.434,2.434,0,0,0-.279,0h-.688Z" transform="translate(-42.675 -57.061)"/><path class="f" d="M101.165,95.168h3.144v.941h-2.15v.865h2.015v.957h-1.994v.946h2.247v.941h-3.262Z" transform="translate(-43.895 -57.061)"/><path class="f" d="M106.537,95.168h1.532a4.536,4.536,0,0,1,1.075.124,2.359,2.359,0,0,1,.871.4,1.951,1.951,0,0,1,.591.72,2.451,2.451,0,0,1,.22,1.075,2.252,2.252,0,0,1-.231.978,2.15,2.15,0,0,1-.575.715,2.488,2.488,0,0,1-.833.446,3.311,3.311,0,0,1-.989.15h-1.666Zm1.021,3.692h.537a2.848,2.848,0,0,0,.656-.075,1.478,1.478,0,0,0,.537-.236,1.139,1.139,0,0,0,.349-.441,1.526,1.526,0,0,0,.129-.661,1.3,1.3,0,0,0-.129-.6,1.177,1.177,0,0,0-.344-.414,1.58,1.58,0,0,0-.505-.247,2.278,2.278,0,0,0-.613-.081h-.6Z" transform="translate(-45.054 -57.061)"/><path class="f" d="M115.674,95.168H117.4a3.763,3.763,0,0,1,.6.043,1.612,1.612,0,0,1,.537.167,1.01,1.01,0,0,1,.392.36,1.075,1.075,0,0,1,.15.607,1,1,0,0,1-.215.65,1.252,1.252,0,0,1-.586.371h0a1.274,1.274,0,0,1,.419.129,1.209,1.209,0,0,1,.322.242,1.167,1.167,0,0,1,.2.344,1.182,1.182,0,0,1,.07.419,1.15,1.15,0,0,1-.156.613,1.258,1.258,0,0,1-.408.4,1.924,1.924,0,0,1-.537.215,2.967,2.967,0,0,1-.613.064h-1.9Zm1.021,1.849h.742a1.074,1.074,0,0,0,.231,0,.779.779,0,0,0,.2-.086.478.478,0,0,0,.15-.161.505.505,0,0,0,.054-.231.473.473,0,0,0-.059-.242.414.414,0,0,0-.161-.145.591.591,0,0,0-.226-.075,1.225,1.225,0,0,0-.242,0H116.7Zm0,1.919h.919a.914.914,0,0,0,.236-.027.618.618,0,0,0,.22-.091.5.5,0,0,0,.226-.425.408.408,0,0,0-.086-.263.484.484,0,0,0-.2-.156,1.038,1.038,0,0,0-.269-.07,1.612,1.612,0,0,0-.269,0H116.7Z" transform="translate(-47.027 -57.061)"/><path class="f" d="M122.2,97.823l-1.747-2.655h1.274l.984,1.731,1.037-1.731h1.209l-1.736,2.655V99.8H122.2Z" transform="translate(-48.058 -57.061)"/><path class="f" d="M133.586,99.441a3.719,3.719,0,0,1-.941.339,4.8,4.8,0,0,1-1.005.107,2.87,2.87,0,0,1-1-.172,2.225,2.225,0,0,1-1.311-1.258,2.618,2.618,0,0,1-.188-1,2.644,2.644,0,0,1,.188-1.01,2.262,2.262,0,0,1,.537-.769,2.365,2.365,0,0,1,.79-.489,3,3,0,0,1,1-.167,3.65,3.65,0,0,1,1.027.134,2,2,0,0,1,.822.457l-.72.79a1.37,1.37,0,0,0-.468-.328,1.7,1.7,0,0,0-.661-.113,1.5,1.5,0,0,0-.591.113,1.268,1.268,0,0,0-.451.306,1.317,1.317,0,0,0-.29.478,1.655,1.655,0,0,0-.1.6,1.612,1.612,0,0,0,.1.6,1.338,1.338,0,0,0,.742.785,1.5,1.5,0,0,0,.591.107,1.854,1.854,0,0,0,.58-.075,2.012,2.012,0,0,0,.387-.15v-.752h-.833v-.946H133.6Z" transform="translate(-49.933 -57.029)"/><path class="f" d="M136.173,95.168h1.021V98.86h1.892V99.8h-2.913Z" transform="translate(-51.451 -57.061)"/><path class="f" d="M140.456,97.452a2.644,2.644,0,0,1,.188-1.01,2.252,2.252,0,0,1,.537-.769,2.44,2.44,0,0,1,.8-.489,3.079,3.079,0,0,1,2,0,2.44,2.44,0,0,1,.8.489,2.252,2.252,0,0,1,.537.769,2.644,2.644,0,0,1,.188,1.01,2.617,2.617,0,0,1-.188,1.005,2.2,2.2,0,0,1-.537.769,2.274,2.274,0,0,1-.8.489,2.993,2.993,0,0,1-2,0,2.274,2.274,0,0,1-.8-.489,2.2,2.2,0,0,1-.537-.769,2.617,2.617,0,0,1-.188-1Zm1.075,0a1.613,1.613,0,0,0,.1.6,1.457,1.457,0,0,0,.29.473,1.355,1.355,0,0,0,.457.312,1.677,1.677,0,0,0,1.182,0,1.354,1.354,0,0,0,.457-.312,1.456,1.456,0,0,0,.29-.473,1.757,1.757,0,0,0,.1-.6,1.779,1.779,0,0,0-.1-.6,1.483,1.483,0,0,0-.29-.478,1.338,1.338,0,0,0-.457-.306,1.612,1.612,0,0,0-1.182,0,1.338,1.338,0,0,0-.457.306,1.483,1.483,0,0,0-.29.478,1.655,1.655,0,0,0-.118.6Z" transform="translate(-52.375 -57.029)"/><path class="f" d="M147.879,95.168h1.736a3.763,3.763,0,0,1,.6.043,1.612,1.612,0,0,1,.537.167,1.01,1.01,0,0,1,.392.36,1.075,1.075,0,0,1,.15.607,1,1,0,0,1-.215.65,1.236,1.236,0,0,1-.58.371h0a1.284,1.284,0,0,1,.414.129,1.209,1.209,0,0,1,.322.242,1.166,1.166,0,0,1,.2.344,1.183,1.183,0,0,1,.07.419,1.15,1.15,0,0,1-.156.613,1.3,1.3,0,0,1-.4.4,2.047,2.047,0,0,1-.537.215,3.057,3.057,0,0,1-.618.064h-1.9Zm1.021,1.849h.742a1.073,1.073,0,0,0,.231,0,.9.9,0,0,0,.21-.086.537.537,0,0,0,.145-.161.446.446,0,0,0,.054-.231.424.424,0,0,0-.059-.242.414.414,0,0,0-.161-.145.6.6,0,0,0-.22-.075,1.3,1.3,0,0,0-.242,0h-.7Zm0,1.919h.919a.914.914,0,0,0,.236-.027.618.618,0,0,0,.22-.091.5.5,0,0,0,.161-.172.451.451,0,0,0,.064-.253.409.409,0,0,0-.086-.263.484.484,0,0,0-.2-.156,1.037,1.037,0,0,0-.269-.07,1.612,1.612,0,0,0-.269,0H148.9Z" transform="translate(-53.977 -57.061)"/><path class="f" d="M154.849,95.168h.844l2.015,4.633h-1.156l-.4-.984h-1.8l-.382.984h-1.139Zm.392,1.349-.537,1.44h1.129Z" transform="translate(-55.047 -57.061)"/><path class="f" d="M159.859,95.168h1.021V98.86h1.892V99.8h-2.913Z" transform="translate(-56.563 -57.061)"/><path class="f" d="M168.484,95.168h.844l2.015,4.633h-1.15l-.4-.984h-1.8l-.387.984h-1.129Zm.392,1.349-.564,1.44h1.134Z" transform="translate(-57.992 -57.061)"/><path class="f" d="M176.406,96.34a.908.908,0,0,0-.371-.279,1.145,1.145,0,0,0-.505-.1,1.241,1.241,0,0,0-.537.113,1.285,1.285,0,0,0-.43.306,1.558,1.558,0,0,0-.279.478,1.655,1.655,0,0,0-.1.6,1.613,1.613,0,0,0,.1.6,1.531,1.531,0,0,0,.279.473,1.3,1.3,0,0,0,.414.312,1.2,1.2,0,0,0,.537.107,1.107,1.107,0,0,0,.957-.494l.849.634a1.779,1.779,0,0,1-.747.607,2.348,2.348,0,0,1-.93.2,2.87,2.87,0,0,1-1-.172,2.2,2.2,0,0,1-.79-.489,2.15,2.15,0,0,1-.537-.769,2.793,2.793,0,0,1,0-2.015,2.188,2.188,0,0,1,.537-.769,2.364,2.364,0,0,1,.79-.489,3,3,0,0,1,1-.167,2.687,2.687,0,0,1,.408.032,2.2,2.2,0,0,1,.419.118,1.714,1.714,0,0,1,.736.537Z" transform="translate(-59.426 -57.029)"/><path class="f" d="M182.3,96.347a.946.946,0,0,0-.371-.279,1.188,1.188,0,0,0-.511-.1,1.279,1.279,0,0,0-.537.113,1.263,1.263,0,0,0-.425.306,1.467,1.467,0,0,0-.285.478,1.779,1.779,0,0,0-.1.6,1.758,1.758,0,0,0,.1.6,1.531,1.531,0,0,0,.279.473,1.3,1.3,0,0,0,.414.312,1.2,1.2,0,0,0,.537.107,1.177,1.177,0,0,0,.537-.129,1.123,1.123,0,0,0,.4-.365l.876.634a1.714,1.714,0,0,1-.747.607,2.311,2.311,0,0,1-.93.2,2.87,2.87,0,0,1-1-.172,2.225,2.225,0,0,1-1.311-1.258,2.617,2.617,0,0,1-.188-1,2.644,2.644,0,0,1,.188-1.01,2.263,2.263,0,0,1,.537-.769,2.365,2.365,0,0,1,.763-.462,3,3,0,0,1,1-.167,2.792,2.792,0,0,1,.414.032,2.452,2.452,0,0,1,.419.118,1.543,1.543,0,0,1,.392.21,1.456,1.456,0,0,1,.339.317Z" transform="translate(-60.701 -57.036)"/><path class="f" d="M185.258,95.168h3.149v.941h-2.15v.865h2.058v.957h-2.01v.946h2.247v.941h-3.268Z" transform="translate(-62.044 -57.061)"/><path class="f" d="M190.686,95.168h1.021V98.86H193.6V99.8h-2.913Z" transform="translate(-63.216 -57.061)"/><path class="f" d="M195.326,95.168h3.149v.941h-2.15v.865h2.01v.957h-2.01v.946h2.247v.941h-3.246Z" transform="translate(-64.217 -57.061)"/><path class="f" d="M200.713,95.168h1.79a2.993,2.993,0,0,1,.672.07,1.5,1.5,0,0,1,.537.226,1.112,1.112,0,0,1,.382.435,1.4,1.4,0,0,1,.145.672,1.365,1.365,0,0,1-.226.822,1.182,1.182,0,0,1-.747.435l1.177,1.956h-1.236l-.973-1.854h-.505v1.854h-1.016Zm1.016,1.913h.9a.854.854,0,0,0,.274-.059.435.435,0,0,0,.29-.451.478.478,0,0,0-.07-.279.537.537,0,0,0-.183-.161.908.908,0,0,0-.258-.075h-.951Z" transform="translate(-65.38 -57.061)"/><path class="f" d="M206.333,95.168h3.149v.941h-2.15v.865h2.01v.957h-1.967v.946h2.246v.941h-3.268Z" transform="translate(-66.593 -57.061)"/><path class="f" d="M212.728,97.4,211.2,95.189h1.285l.989,1.612.946-1.612h1.236l-1.494,2.193,1.671,2.44h-1.284l-1.129-1.865-1.1,1.865h-1.225Z" transform="translate(-67.619 -57.066)"/></g></g></svg>