<svg xmlns="http://www.w3.org/2000/svg" width="72" height="72" viewBox="0 0 72 72"><defs><style>.a{fill:rgba(255,255,255,0);}.b{fill:#ff9811;}.c{fill:#950007;}.d{fill:#ee8700;}.e{fill:#009986;}.f{fill:#00b39d;}.g{fill:#00ccb3;}.h{fill:#e6e7e8;}.i{fill:#cc7400;}.j{fill:#c91c24;}</style></defs><g transform="translate(-126 -33)"><rect class="a" width="72" height="72" transform="translate(126 33)"/><g transform="translate(131 38.932)"><path class="b" d="M84,192H64v35.8H89.269V192Zm0,0" transform="translate(-55.577 -166.731)"/><path class="c" d="M204.635,40.423V32h-6.317v8.423L192,53.058v35.8h18.952v-35.8Zm0,0" transform="translate(-166.731 -27.788)"/><path class="d" d="M0,192H8.423v35.8H0Zm0,0" transform="translate(0 -166.731)"/><path class="e" d="M308.212,216H304v4.212h16.846V216Zm0,0" transform="translate(-263.99 -187.572)"/><path class="e" d="M404.212,248l4.212,7.37H400Zm0,0" transform="translate(-347.355 -215.36)"/><path class="f" d="M400,304h8.423v21.058H400Zm0,0" transform="translate(-347.355 -263.99)"/><path class="f" d="M280.423,248h-4.212L272,255.37h16.846l4.212-7.37Zm0,0" transform="translate(-236.202 -215.36)"/><path class="g" d="M280.423,304H272v21.058h16.846V304Zm0,0" transform="translate(-236.202 -263.99)"/><path class="h" d="M240,0h6.317V4.212H240Zm0,0" transform="translate(-208.413)"/><g transform="translate(0 11.581)"><path class="i" d="M4.212,416l4.212,6.317H0Zm0,0" transform="translate(0 -372.83)"/><path class="i" d="M8.423,192l-4.212,6.317L0,192Zm0,0" transform="translate(0 -178.311)"/><path class="i" d="M98.106,106.945H96V96.416A8.423,8.423,0,0,1,110.319,90.4l-1.474,1.5a6.318,6.318,0,0,0-10.74,4.513Zm0,0" transform="translate(-83.365 -87.992)"/><path class="i" d="M48.846,101.688H46.741V96.423a6.317,6.317,0,0,0-12.635,0v5.264H32V96.423a8.423,8.423,0,0,1,16.846,0Zm0,0" transform="translate(-27.788 -87.999)"/></g><path class="j" d="M240,24h6.317v2.106H240Zm0,0" transform="translate(-208.413 -20.841)"/></g></g></svg>