<svg xmlns="http://www.w3.org/2000/svg" width="24" height="24" viewBox="0 0 24 24"><defs><style>.a{fill:none;}.b{fill:#585858;}</style></defs><rect class="a" width="24" height="24"/><path class="b" d="M20.386,2.2a10.193,10.193,0,0,0-3.82-.7c-4.042,0-8.084,1.938-12.127,1.938A10.47,10.47,0,0,1,1.4,3.012a1.179,1.179,0,0,0-.34-.05A1.019,1.019,0,0,0,0,3.95v9.864a.987.987,0,0,0,.618.916,10.187,10.187,0,0,0,3.82.7c4.042,0,8.085-1.939,12.127-1.939a10.47,10.47,0,0,1,3.041.427,1.179,1.179,0,0,0,.34.05A1.019,1.019,0,0,0,21,12.979V3.115A.988.988,0,0,0,20.386,2.2ZM1.575,4.616a12.016,12.016,0,0,0,2.058.278A2.077,2.077,0,0,1,1.575,6.5Zm0,8.861V11.992A2.052,2.052,0,0,1,3.666,13.9,8.309,8.309,0,0,1,1.575,13.477ZM10.5,11.45A2.823,2.823,0,0,1,7.877,8.465,2.823,2.823,0,0,1,10.5,5.48a2.823,2.823,0,0,1,2.626,2.985A2.823,2.823,0,0,1,10.5,11.45Zm8.927.864a11.865,11.865,0,0,0-1.783-.262,2.058,2.058,0,0,1,1.783-1.532v1.795Zm0-7.341A2.03,2.03,0,0,1,17.6,3.058a8.262,8.262,0,0,1,1.832.394Z" transform="translate(1.24 3.82)"/></svg>