<svg xmlns="http://www.w3.org/2000/svg" xmlns:xlink="http://www.w3.org/1999/xlink" width="137.681" height="67.019" viewBox="0 0 137.681 67.019"><defs><style>.a{fill:rgba(255,255,255,0);}.b{clip-path:url(#a);}.c{fill:#e51e27;}.d{stroke:#000;stroke-miterlimit:10;stroke-width:0.464px;}.e{fill:#7f8080;}</style><clipPath id="a"><rect class="a" width="137.681" height="67.019" transform="translate(83.908 109)"/></clipPath></defs><g transform="translate(-83.908 -109)"><g class="b"><g transform="translate(63.414 88.663)"><path class="c" d="M78.918,45.508a2,2,0,0,0-2.816,0l-9.241,9.241,2.816,2.811,9.241-9.241a2,2,0,0,0,0-2.811"/><path d="M31.778,47.39a1.877,1.877,0,0,1-1.872,1.872,5.7,5.7,0,0,0-5.7,5.692v7.539a1.857,1.857,0,0,1-3.715,0V54.954a9.416,9.416,0,0,1,9.411-9.406,1.852,1.852,0,0,1,1.872,1.842"/><path d="M50.48,54.919A1.852,1.852,0,0,1,48.6,56.761H35.672a5.727,5.727,0,0,0,5.4,3.864,7.4,7.4,0,0,0,4.2-1.213,1.788,1.788,0,0,1,2.466.859,1.983,1.983,0,0,1-.9,2.5,9.146,9.146,0,0,1-5.761,1.608,9.406,9.406,0,1,1,0-18.812,9.234,9.234,0,0,1,9.406,9.4M35.672,53.091H46.5a5.471,5.471,0,0,0-5.427-3.824,5.747,5.747,0,0,0-5.4,3.824"/><path d="M69.567,64.9a1.962,1.962,0,0,1-1.4-.589L53.356,49.537a2,2,0,0,1,2.811-2.811l14.808,14.8a2,2,0,0,1-1.408,3.4"/><path d="M53.141,64.9a2,2,0,0,1-1.4-3.4l23.9-23.87a2,2,0,0,1,2.816,2.806l-23.9,23.9a2,2,0,0,1-1.408.589"/><path class="c" d="M37.684,42.058a19.866,19.866,0,0,1,6.361-5.567,20.16,20.16,0,0,1,8.283-2.5,20.969,20.969,0,0,1,8.742,1.158,21.553,21.553,0,0,1,7.649,4.788h0a2,2,0,1,1-2.911,2.706,17.973,17.973,0,0,0-13.435-6.49,18.533,18.533,0,0,0-7.764,1.463,19.287,19.287,0,0,0-6.615,4.7.2.2,0,0,1-.29,0,.21.21,0,0,1,0-.27"/><path class="d" d="M91.924,47.39a1.9,1.9,0,0,1-1.9,1.9,5.766,5.766,0,0,0-5.771,5.771V62.7a1.882,1.882,0,1,1-3.764,0V55.064a9.541,9.541,0,0,1,9.536-9.531,1.867,1.867,0,0,1,1.9,1.857Z"/><path class="d" d="M110.881,55.029a1.872,1.872,0,0,1-1.9,1.857H95.858A5.791,5.791,0,0,0,101.35,60.8a7.489,7.489,0,0,0,4.254-1.253,1.8,1.8,0,0,1,2.5.874,1.985,1.985,0,0,1-.909,2.5,9.291,9.291,0,0,1-5.841,1.643,9.536,9.536,0,0,1,0-19.067A9.354,9.354,0,0,1,110.881,55.029Zm-15.023-1.9h10.984a5.548,5.548,0,0,0-5.492-3.874,5.806,5.806,0,0,0-5.492,3.874Z"/><path class="d" d="M124.67,47.39a1.9,1.9,0,0,1-1.9,1.9h-2.7V62.7a1.882,1.882,0,1,1-3.759,0V49.292h-2.736a1.9,1.9,0,0,1-1.862-1.9,1.862,1.862,0,0,1,1.862-1.857h2.746V37.944a1.882,1.882,0,0,1,3.759,0v7.589h2.7a1.867,1.867,0,0,1,1.887,1.857Z"/><path class="d" d="M144.2,55.178v7.444a1.832,1.832,0,0,1-1.9,1.9,2,2,0,0,1-1.822-1.9,8.273,8.273,0,0,1-5.622,1.9,9.329,9.329,0,0,1-9.606-9.341,9.546,9.546,0,0,1,9.606-9.611A9.328,9.328,0,0,1,144.2,55.178Zm-3.724,0a5.741,5.741,0,0,0-5.622-5.886,5.991,5.991,0,0,0-5.886,5.886A5.741,5.741,0,0,0,134.85,60.8a5.492,5.492,0,0,0,5.622-5.622Z"/><path class="d" d="M147.731,41.2a1.957,1.957,0,0,1-.569-1.333,1.937,1.937,0,0,1,.569-1.328,1.842,1.842,0,0,1,2.661,0,1.882,1.882,0,0,1-2.661,2.661ZM147.162,62.7V47.39a1.882,1.882,0,0,1,3.759,0V62.7a1.882,1.882,0,1,1-3.759,0Z"/><path class="d" d="M154.037,62.7V37.974a1.882,1.882,0,1,1,3.764,0V62.7a1.882,1.882,0,1,1-3.764,0Z"/><path class="e" d="M50.311,69.327h1.613a3.18,3.18,0,0,1,.634.06,1.388,1.388,0,0,1,.5.21,1.1,1.1,0,0,1,.354.4,1.4,1.4,0,0,1,.13.634,1.5,1.5,0,0,1-.12.634,1.083,1.083,0,0,1-.335.409,1.438,1.438,0,0,1-.5.215,2.811,2.811,0,0,1-.634.065h-.694v1.678h-.949Zm.949,1.822h.634a1.312,1.312,0,0,0,.245,0,.734.734,0,0,0,.215-.08.459.459,0,0,0,.15-.16.5.5,0,0,0,.06-.255.449.449,0,0,0-.075-.265.594.594,0,0,0-.195-.155,1.083,1.083,0,0,0-.265-.07h-.779Z"/><path class="e" d="M54.035,71.479a2.367,2.367,0,0,1,.175-.939,2.092,2.092,0,0,1,.5-.714,2.3,2.3,0,0,1,.709-.429,2.8,2.8,0,0,1,.934-.155,2.766,2.766,0,0,1,.929.155,2.2,2.2,0,0,1,.734.454,2.032,2.032,0,0,1,.5.714,2.456,2.456,0,0,1,.175.939,2.431,2.431,0,0,1-.175.934,2,2,0,0,1-.5.714,2.047,2.047,0,0,1-.734.454,2.646,2.646,0,0,1-.929.16,2.676,2.676,0,0,1-.934-.16,2.137,2.137,0,0,1-.734-.454,2.042,2.042,0,0,1-.5-.714,2.341,2.341,0,0,1-.15-.959Zm1,0a1.5,1.5,0,0,0,.095.554,1.273,1.273,0,0,0,.27.439,1.208,1.208,0,0,0,.424.29,1.363,1.363,0,0,0,.549.1,1.383,1.383,0,0,0,.549-.1,1.188,1.188,0,0,0,.419-.29,1.283,1.283,0,0,0,.275-.439,1.633,1.633,0,0,0,.095-.554,1.653,1.653,0,0,0-.095-.554,1.308,1.308,0,0,0-.275-.444,1.178,1.178,0,0,0-.419-.285,1.383,1.383,0,0,0-.549-.1,1.363,1.363,0,0,0-.549.1,1.2,1.2,0,0,0-.424.285,1.293,1.293,0,0,0-.27.444,1.538,1.538,0,0,0-.11.554Z"/><path class="e" d="M58.993,69.327h1.033l.689,2.761h0l.9-2.761H62.5l.894,2.831h0l.724-2.831h.964l-1.258,4.3h-.849l-.944-3h0l-.949,3h-.814Z"/><path class="e" d="M65.683,69.327H68.6V70.2h-2V71h1.872v.889H66.606v.879h2.087v.874H65.663Z"/><path class="e" d="M69.6,69.327h1.668a2.845,2.845,0,0,1,.629.07,1.433,1.433,0,0,1,.5.21,1.074,1.074,0,0,1,.354.4,1.358,1.358,0,0,1,.13.624,1.268,1.268,0,0,1-.24.779,1.1,1.1,0,0,1-.694.4l1.1,1.817H71.894l-.9-1.722h-.469v1.722h-.949Zm.949,1.777h.849a.859.859,0,0,0,.26-.055.449.449,0,0,0,.19-.145.439.439,0,0,0,.075-.275.414.414,0,0,0-.235-.409.844.844,0,0,0-.24-.07,2.262,2.262,0,0,0-.26,0h-.639Z"/><path class="e" d="M73.7,69.327h2.921V70.2h-2V71h1.872v.889H74.64v.879h2.087v.874H73.7Z"/><path class="e" d="M77.61,69.327h1.423a4.214,4.214,0,0,1,1,.115,2.192,2.192,0,0,1,.809.374,1.812,1.812,0,0,1,.549.669,2.277,2.277,0,0,1,.2,1,2.092,2.092,0,0,1-.215.909,2,2,0,0,1-.534.664,2.311,2.311,0,0,1-.774.414,3.076,3.076,0,0,1-.919.14H77.605Zm.949,3.43h.5a2.646,2.646,0,0,0,.609-.07,1.373,1.373,0,0,0,.5-.22,1.059,1.059,0,0,0,.325-.409,1.418,1.418,0,0,0,.12-.614,1.208,1.208,0,0,0-.12-.554,1.093,1.093,0,0,0-.32-.384,1.468,1.468,0,0,0-.469-.23,2.117,2.117,0,0,0-.569-.075h-.559Z"/><path class="e" d="M84.265,69.327h1.608a3.494,3.494,0,0,1,.559.04,1.5,1.5,0,0,1,.5.155.939.939,0,0,1,.364.334,1,1,0,0,1,.14.564.929.929,0,0,1-.2.6,1.163,1.163,0,0,1-.544.344h0a1.183,1.183,0,0,1,.389.12,1.123,1.123,0,0,1,.3.225,1.084,1.084,0,0,1,.19.32,1.1,1.1,0,0,1,.065.389,1.069,1.069,0,0,1-.145.569,1.168,1.168,0,0,1-.379.369,1.787,1.787,0,0,1-.5.2,2.756,2.756,0,0,1-.569.06H84.275Zm.949,1.717H85.9a1,1,0,0,0,.215,0,.725.725,0,0,0,.19-.08.445.445,0,0,0,.14-.15.469.469,0,0,0,.05-.215.439.439,0,0,0-.055-.225.384.384,0,0,0-.15-.135.549.549,0,0,0-.21-.07,1.138,1.138,0,0,0-.225,0h-.644Zm0,1.782h.854a.849.849,0,0,0,.22-.025.574.574,0,0,0,.2-.085.464.464,0,0,0,.21-.394.379.379,0,0,0-.08-.245.449.449,0,0,0-.19-.145.964.964,0,0,0-.25-.065,1.5,1.5,0,0,0-.25,0h-.719Z"/><path class="e" d="M89.368,71.794l-1.623-2.466h1.183l.914,1.608.964-1.608h1.123l-1.613,2.466v1.837h-.949Z"/><path class="e" d="M98.2,73.326a3.454,3.454,0,0,1-.874.315,4.458,4.458,0,0,1-.934.1,2.666,2.666,0,0,1-.929-.16,2.067,2.067,0,0,1-1.218-1.168,2.431,2.431,0,0,1-.175-.934,2.457,2.457,0,0,1,.175-.939,2.1,2.1,0,0,1,.5-.714,2.2,2.2,0,0,1,.734-.454,2.786,2.786,0,0,1,.929-.155,3.39,3.39,0,0,1,.954.125,1.862,1.862,0,0,1,.764.424l-.669.734a1.273,1.273,0,0,0-.434-.3,1.578,1.578,0,0,0-.614-.1,1.4,1.4,0,0,0-.549.1,1.178,1.178,0,0,0-.419.285,1.223,1.223,0,0,0-.27.444,1.538,1.538,0,0,0-.095.554,1.5,1.5,0,0,0,.095.554,1.243,1.243,0,0,0,.689.729,1.4,1.4,0,0,0,.549.1,1.722,1.722,0,0,0,.539-.07,1.869,1.869,0,0,0,.359-.14v-.7h-.774v-.879H98.22Z"/><path class="e" d="M99.2,69.327h.949v3.43H101.9v.874H99.2Z"/><path class="e" d="M102.319,71.479a2.456,2.456,0,0,1,.175-.939,2.092,2.092,0,0,1,.5-.714,2.267,2.267,0,0,1,.739-.454,2.861,2.861,0,0,1,1.857,0,2.266,2.266,0,0,1,.739.454,2.092,2.092,0,0,1,.5.714,2.457,2.457,0,0,1,.175.939,2.431,2.431,0,0,1-.175.934,2.042,2.042,0,0,1-.5.714,2.112,2.112,0,0,1-.739.454,2.781,2.781,0,0,1-1.857,0,2.112,2.112,0,0,1-.739-.454,2.042,2.042,0,0,1-.5-.714,2.431,2.431,0,0,1-.175-.934Zm1,0a1.5,1.5,0,0,0,.095.554,1.353,1.353,0,0,0,.27.439,1.258,1.258,0,0,0,.424.29,1.558,1.558,0,0,0,1.1,0,1.258,1.258,0,0,0,.424-.29,1.353,1.353,0,0,0,.27-.439,1.633,1.633,0,0,0,.095-.554,1.653,1.653,0,0,0-.095-.554,1.378,1.378,0,0,0-.27-.444,1.243,1.243,0,0,0-.424-.285,1.5,1.5,0,0,0-1.1,0,1.243,1.243,0,0,0-.424.285,1.378,1.378,0,0,0-.27.444,1.538,1.538,0,0,0-.11.554Z"/><path class="e" d="M107.726,69.327h1.613a3.494,3.494,0,0,1,.559.04,1.5,1.5,0,0,1,.5.155.939.939,0,0,1,.364.335,1,1,0,0,1,.14.564.929.929,0,0,1-.2.6,1.148,1.148,0,0,1-.539.345h0a1.193,1.193,0,0,1,.384.12,1.123,1.123,0,0,1,.3.225,1.083,1.083,0,0,1,.19.32,1.1,1.1,0,0,1,.065.389,1.069,1.069,0,0,1-.145.569,1.2,1.2,0,0,1-.374.369,1.9,1.9,0,0,1-.5.2,2.841,2.841,0,0,1-.574.06h-1.767Zm.949,1.717h.689a1,1,0,0,0,.215,0,.839.839,0,0,0,.195-.08.5.5,0,0,0,.135-.15.414.414,0,0,0,.05-.215.394.394,0,0,0-.055-.225.385.385,0,0,0-.15-.135.554.554,0,0,0-.2-.07,1.208,1.208,0,0,0-.225,0h-.649Zm0,1.782h.854a.849.849,0,0,0,.22-.025.574.574,0,0,0,.2-.085.464.464,0,0,0,.15-.16.419.419,0,0,0,.06-.235.38.38,0,0,0-.08-.245.449.449,0,0,0-.19-.145.964.964,0,0,0-.25-.065,1.5,1.5,0,0,0-.25,0h-.719Z"/><path class="e" d="M113.207,69.327h.784l1.872,4.3H114.79l-.369-.914h-1.673l-.354.914h-1.058Zm.364,1.253-.5,1.338h1.048Z"/><path class="e" d="M116.453,69.327h.949v3.43h1.757v.874h-2.706Z"/><path class="e" d="M123.138,69.327h.784l1.872,4.3h-1.068l-.369-.914h-1.673l-.359.914h-1.048Zm.364,1.253-.524,1.338h1.053Z"/><path class="e" d="M129.164,70.446a.844.844,0,0,0-.344-.26,1.063,1.063,0,0,0-.469-.095,1.153,1.153,0,0,0-.5.1,1.193,1.193,0,0,0-.4.285,1.448,1.448,0,0,0-.26.444,1.537,1.537,0,0,0-.09.554,1.5,1.5,0,0,0,.09.554,1.423,1.423,0,0,0,.26.439,1.2,1.2,0,0,0,.384.29,1.113,1.113,0,0,0,.5.1,1.028,1.028,0,0,0,.889-.459l.789.589a1.652,1.652,0,0,1-.694.564,2.182,2.182,0,0,1-.864.185,2.666,2.666,0,0,1-.929-.16,2.047,2.047,0,0,1-.734-.454,2,2,0,0,1-.5-.714,2.431,2.431,0,0,1-.175-.934,2.456,2.456,0,0,1,.175-.939,2.032,2.032,0,0,1,.5-.714,2.2,2.2,0,0,1,.734-.454,2.786,2.786,0,0,1,.929-.155,2.5,2.5,0,0,1,.379.03,2.048,2.048,0,0,1,.389.11,1.593,1.593,0,0,1,.684.5Z"/><path class="e" d="M133.452,70.446a.879.879,0,0,0-.344-.26,1.1,1.1,0,0,0-.474-.095,1.188,1.188,0,0,0-.5.1,1.173,1.173,0,0,0-.394.285,1.363,1.363,0,0,0-.265.444,1.653,1.653,0,0,0-.09.554,1.633,1.633,0,0,0,.09.554,1.423,1.423,0,0,0,.26.439,1.2,1.2,0,0,0,.384.29,1.113,1.113,0,0,0,.5.1,1.093,1.093,0,0,0,.5-.12,1.043,1.043,0,0,0,.369-.339l.814.589a1.593,1.593,0,0,1-.694.564,2.147,2.147,0,0,1-.864.185,2.666,2.666,0,0,1-.929-.16,2.067,2.067,0,0,1-1.218-1.168,2.431,2.431,0,0,1-.175-.934,2.457,2.457,0,0,1,.175-.939,2.1,2.1,0,0,1,.5-.714,2.2,2.2,0,0,1,.709-.429,2.786,2.786,0,0,1,.929-.155,2.593,2.593,0,0,1,.384.03,2.277,2.277,0,0,1,.389.11,1.433,1.433,0,0,1,.364.195,1.353,1.353,0,0,1,.315.295Z"/><path class="e" d="M134.955,69.327h2.926V70.2h-2V71H137.8v.889h-1.867v.879h2.087v.874H134.98Z"/><path class="e" d="M138.909,69.327h.949v3.43h1.757v.874h-2.706Z"/><path class="e" d="M142.289,69.327h2.926V70.2h-2V71h1.867v.889h-1.867v.879H145.3v.874h-3.016Z"/><path class="e" d="M146.214,69.327h1.663a2.78,2.78,0,0,1,.624.065,1.4,1.4,0,0,1,.5.21,1.033,1.033,0,0,1,.354.4,1.3,1.3,0,0,1,.135.624,1.268,1.268,0,0,1-.21.764,1.1,1.1,0,0,1-.694.4l1.093,1.817H148.53l-.9-1.722h-.469v1.722h-.944Zm.944,1.777h.834a.794.794,0,0,0,.255-.055.4.4,0,0,0,.27-.419.444.444,0,0,0-.065-.26.5.5,0,0,0-.17-.15.844.844,0,0,0-.24-.07h-.884Z"/><path class="e" d="M150.308,69.327h2.926V70.2h-2V71H153.1v.889h-1.827v.879h2.087v.874h-3.035Z"/><path class="e" d="M155.3,71.394l-1.423-2.052h1.193l.919,1.5.879-1.5h1.148l-1.388,2.037,1.553,2.267h-1.193l-1.048-1.732-1.023,1.732h-1.138Z"/></g></g></g></svg>