<svg xmlns="http://www.w3.org/2000/svg" width="60" height="63" viewBox="0 0 60 63"><defs><style>.a{fill:#ff9811;}.b{fill:#950007;}.c{fill:#ee8700;}.d{fill:#009986;}.e{fill:#00b39d;}.f{fill:#00ccb3;}.g{fill:#e6e7e8;}.h{fill:#cc7400;}.i{fill:#c91c24;}.j{fill:#c8ffc1;}.k{fill:#13a500;}</style></defs><g transform="translate(-128 -36)"><g transform="translate(128 45.942)"><path class="a" d="M81.381,192H64v31.1H85.955V192Zm0,0" transform="translate(-56.682 -170.045)"/><path class="b" d="M202.977,39.318V32h-5.489v7.318L192,50.3V81.4h16.466V50.3Zm0,0" transform="translate(-170.045 -28.341)"/><path class="c" d="M0,192H7.318v31.1H0Zm0,0" transform="translate(0 -170.045)"/><path class="d" d="M307.659,216H304v3.659h14.637V216Zm0,0" transform="translate(-269.238 -191.301)"/><path class="d" d="M403.659,248l3.659,6.4H400Zm0,0" transform="translate(-354.261 -219.642)"/><path class="e" d="M400,304h7.318v18.3H400Zm0,0" transform="translate(-354.261 -269.238)"/><path class="e" d="M279.318,248h-3.659L272,254.4h14.637L290.3,248Zm0,0" transform="translate(-240.897 -219.642)"/><path class="f" d="M279.318,304H272v18.3h14.637V304Zm0,0" transform="translate(-240.897 -269.238)"/><path class="g" d="M240,0h5.489V3.659H240Zm0,0" transform="translate(-212.556)"/><g transform="translate(0 10.062)"><path class="h" d="M3.659,416l3.659,5.489H0Zm0,0" transform="translate(0 -378.493)"/><path class="h" d="M7.318,192l-3.659,5.489L0,192Zm0,0" transform="translate(0 -180.107)"/><path class="h" d="M97.83,104.459H96V95.311a7.318,7.318,0,0,1,12.441-5.227l-1.281,1.306a5.489,5.489,0,0,0-9.331,3.921Zm0,0" transform="translate(-85.023 -87.992)"/><path class="h" d="M46.637,99.892h-1.83V95.318a5.489,5.489,0,0,0-10.977,0v4.574H32V95.318a7.318,7.318,0,0,1,14.637,0Zm0,0" transform="translate(-28.341 -87.999)"/></g><path class="i" d="M240,24h5.489v1.83H240Zm0,0" transform="translate(-212.556 -21.256)"/></g><g transform="translate(164 36)"><rect class="j" width="24" height="24" rx="12"/><path class="k" d="M14.857,8.536H9.714V3.393A1.143,1.143,0,0,0,8.571,2.25H7.429A1.143,1.143,0,0,0,6.286,3.393V8.536H1.143A1.143,1.143,0,0,0,0,9.679v1.143a1.143,1.143,0,0,0,1.143,1.143H6.286v5.143A1.143,1.143,0,0,0,7.429,18.25H8.571a1.143,1.143,0,0,0,1.143-1.143V11.964h5.143A1.143,1.143,0,0,0,16,10.821V9.679A1.143,1.143,0,0,0,14.857,8.536Z" transform="translate(4 1.75)"/></g></g></svg>