<svg xmlns="http://www.w3.org/2000/svg" width="24" height="24" viewBox="0 0 24 24"><defs><style>.a{fill:none;}.b{fill:#585858;}</style></defs><g transform="translate(-715 -250)"><rect class="a" width="24" height="24" transform="translate(715 250)"/><path class="b" d="M20.571,8.821v.571a.857.857,0,0,1-.857.857h-.286L18.5,16.778a1.714,1.714,0,0,1-1.7,1.472H3.772a1.714,1.714,0,0,1-1.7-1.472L1.143,10.25H.857A.857.857,0,0,1,0,9.393V8.821a.857.857,0,0,1,.857-.857H3.262L7.076,2.721A1.143,1.143,0,0,1,8.924,4.065l-2.836,3.9h8.394l-2.836-3.9A1.143,1.143,0,0,1,13.5,2.721l3.814,5.244h2.405A.857.857,0,0,1,20.571,8.821Zm-9.429,6.286v-4a.857.857,0,0,0-1.714,0v4a.857.857,0,0,0,1.714,0Zm4,0v-4a.857.857,0,0,0-1.714,0v4a.857.857,0,0,0,1.714,0Zm-8,0v-4a.857.857,0,0,0-1.714,0v4a.857.857,0,0,0,1.714,0Z" transform="translate(716.375 252)"/></g></svg>