<svg xmlns="http://www.w3.org/2000/svg" width="72" height="72" viewBox="0 0 72 72"><defs><style>.a{fill:rgba(255,255,255,0);}.b{fill:#830007;}.c{fill:#760006;}.d{fill:#950007;}.e{fill:#e6e7e8;}.f{fill:#bcbec0;}</style></defs><g transform="translate(-126 -33)"><rect class="a" width="72" height="72" transform="translate(126 33)"/><g transform="translate(128 31)"><path class="b" d="M56.885,28.874v30.9H29V16l6.435,12.874Z" transform="translate(1.885)"/><path class="c" d="M56.392,26v2.575H37.087L35.8,26Z" transform="translate(2.379 2.874)"/><path class="d" d="M9,16H30.45V59.771H9Z" transform="translate(0.435)"/><path class="e" d="M22.435,16V28.874L19.218,26.3,16,28.874V16Z" transform="translate(0.943)"/><path class="b" d="M9.435,16V28.874H3Z"/><path class="e" d="M35,32H50.015V42.3H35Z" transform="translate(2.321 4.598)"/><g transform="translate(30.885 16)"><path class="d" d="M56.885,16l6.435,12.874H35.435L29,16Z" transform="translate(-29 -16)"/><path class="d" d="M48,45h4.29v2.575H48Z" transform="translate(-27.622 -7.666)"/><path class="d" d="M44,45h2.145v2.575H44Z" transform="translate(-27.912 -7.666)"/></g><path class="f" d="M38,35h2.145v2.575H38Z" transform="translate(2.538 5.46)"/><path class="f" d="M42,35h4.29v2.575H42Z" transform="translate(2.828 5.46)"/></g></g></svg>