<svg xmlns="http://www.w3.org/2000/svg" width="24" height="24" viewBox="0 0 24 24"><defs><style>.a{fill:none;}.b{fill:#585858;}</style></defs><g transform="translate(-0.31)"><rect class="a" width="24" height="24" transform="translate(0.31)"/><path class="b" d="M9.236,9.877l.791-5.25H5.913l-1.719,4.5a1.577,1.577,0,0,0-.081.5,2.34,2.34,0,0,0,2.571,2,2.439,2.439,0,0,0,2.552-1.75Zm3.877,1.75a2.34,2.34,0,0,0,2.571-2c0-.041,0-.082-.005-.121L15.17,4.627H11.056L10.546,9.5c0,.041,0,.082,0,.125a2.34,2.34,0,0,0,2.571,2Zm5,1.046v3.954h-10V12.679a4.208,4.208,0,0,1-1.429.248,4.123,4.123,0,0,1-.571-.049v6.349a1.4,1.4,0,0,0,1.4,1.4h11.2a1.4,1.4,0,0,0,1.4-1.4V12.879a4.3,4.3,0,0,1-.571.049A4.156,4.156,0,0,1,18.113,12.673Zm3.92-3.546-1.721-4.5H16.2l.79,5.242a2.433,2.433,0,0,0,2.553,1.758,2.34,2.34,0,0,0,2.571-2,1.606,1.606,0,0,0-.08-.5Z" transform="translate(-1.076 -0.967)"/></g></svg>