<svg xmlns="http://www.w3.org/2000/svg" width="54.948" height="61.253" viewBox="0 0 54.948 61.253"><defs><style>.a{fill:#c91c24;}.b{fill:#1a1a1a;}.c{fill:#fff7c7;}.d{fill:#e26111;}.e{fill:#fbbe2c;}.f{fill:#fff;}</style></defs><g transform="translate(-18.25 -13)"><rect class="a" width="36.536" height="61.253" rx="4.128" transform="translate(18.25 13)"/><path class="b" d="M79.09,30.1H94.956A2.547,2.547,0,0,1,97.5,32.647v29.26a2.547,2.547,0,0,1-2.547,2.547H79.09V30.1Z" transform="translate(-24.304 -6.831)"/><path class="c" d="M25.968,21.5H53.233V33.769H25.968Z" transform="translate(-3.083 -3.396)"/><path class="d" d="M55.253,51.465h9.679v5.044H55.253Z" transform="translate(-14.782 -15.366)"/><path class="d" d="M55.253,66.75h9.679v5.044H55.253Z" transform="translate(-14.782 -21.472)"/><path class="e" d="M55.253,82.034h9.679V96.421H55.253Z" transform="translate(-14.782 -27.578)"/><g transform="translate(22.681 36.099)"><path class="f" d="M25.628,51.465h5.044v5.044H25.628Z" transform="translate(-25.628 -51.465)"/><path class="f" d="M40.27,51.465h5.044v5.044H40.27Z" transform="translate(-31.477 -51.465)"/><path class="f" d="M25.628,66.75h5.044v5.044H25.628Z" transform="translate(-25.628 -57.571)"/><path class="f" d="M40.27,66.75h5.044v5.044H40.27Z" transform="translate(-31.477 -57.571)"/><path class="f" d="M25.628,82.034h5.044v5.044H25.628Z" transform="translate(-25.628 -63.677)"/><path class="f" d="M40.27,82.034h5.044v5.044H40.27Z" transform="translate(-31.477 -63.677)"/><path class="f" d="M25.628,97.592h5.044v5.044H25.628Z" transform="translate(-25.628 -69.892)"/><path class="f" d="M40.27,97.592h5.044v5.044H40.27Z" transform="translate(-31.477 -69.892)"/></g><path class="c" d="M93.257,30.1h4.171V64.453H93.257Z" transform="translate(-29.964 -6.831)"/></g></svg>