<svg xmlns="http://www.w3.org/2000/svg" width="24" height="24" viewBox="0 0 24 24"><defs><style>.a{fill:none;}.b{fill:#585858;}</style></defs><rect class="a" width="24" height="24"/><path class="b" d="M15.429,17.19v-.942A5.1,5.1,0,0,0,17.714,12c0-2.84,0-5.143-3.429-5.143S10.857,9.16,10.857,12a5.1,5.1,0,0,0,2.286,4.247v.942c-3.877.317-6.857,2.222-6.857,4.525h16c0-2.3-2.98-4.208-6.857-4.525Zm-7.872.441a10.858,10.858,0,0,1,3.568-1.436,6.447,6.447,0,0,1-.723-1.054A6.544,6.544,0,0,1,9.571,12a10.147,10.147,0,0,1,.546-4.174,3.721,3.721,0,0,1,2.843-2.134c-.3-1.366-1.106-2.263-3.247-2.263-3.429,0-3.429,2.3-3.429,5.143a5.1,5.1,0,0,0,2.286,4.247v.943c-3.877.317-6.857,2.222-6.857,4.525H6.7A7.32,7.32,0,0,1,7.557,17.631Z" transform="translate(0.43 -0.241)"/></svg>