<svg xmlns="http://www.w3.org/2000/svg" width="61.984" height="61.984" viewBox="0 0 61.984 61.984"><defs><style>.a{fill:#fff7c7;}.b{fill:#efbe9a;}.c{fill:#8892a0;}.d{fill:#830006;}.e{fill:#6a0005;}.f{fill:#950007;}.g{fill:#c91c24;}</style></defs><g transform="translate(-2 -2)"><path class="a" d="M63.191,51.587H26V2H52.86V12.331H63.191Z" transform="translate(0.794)"/><path class="a" d="M52.694,2H34.1A30.446,30.446,0,0,0,31,15.43c0,17.117,14.107,30.992,31.509,30.992.174,0,.344-.01.517-.012V12.331H52.694Z" transform="translate(0.959)"/><path class="b" d="M52,32.265,55.1,24l3.1,8.265V60.157a3.1,3.1,0,1,1-6.2,0Z" transform="translate(1.654 0.728)"/><path class="c" d="M62.331,12.331H52V2" transform="translate(1.654)"/><path class="d" d="M16.463,48.265,2,40V54.463l14.463,8.265Z" transform="translate(0 1.257)"/><path class="e" d="M16,48.265,30.463,40V54.463L16,62.728Z" transform="translate(0.463 1.257)"/><path class="f" d="M25.631,43.29l5.294-3.026L16.463,32,2,40.265l14.463,8.265,5.165-2.951" transform="translate(0 0.992)"/><path class="a" d="M11,34.929l14.592,8.338v5.165L21.459,50.5V45.333L7.125,37.142" transform="translate(0.169 1.089)"/><path class="g" d="M58.2,32l-3.1,2.066L52,32V56.794h6.2Z" transform="translate(1.654 0.992)"/><g transform="translate(29.893 15.43)"><path class="c" d="M29,15h2.066v2.066H29Z" transform="translate(-29 -15)"/></g><g transform="translate(34.025 15.43)"><path class="c" d="M33,15H59.86v2.066H33Z" transform="translate(-33 -15)"/></g><g transform="translate(58.819 19.562)"><path class="c" d="M57,19h2.066v2.066H57Z" transform="translate(-57 -19)"/></g><g transform="translate(29.893 19.562)"><path class="c" d="M29,19H55.86v2.066H29Z" transform="translate(-29 -19)"/></g><g transform="translate(29.893 23.694)"><path class="c" d="M29,23H49.661v2.066H29Z" transform="translate(-29 -23)"/></g><g transform="translate(29.893 27.827)"><path class="c" d="M29,27H49.661v2.066H29Z" transform="translate(-29 -27)"/></g></g></svg>