<svg xmlns="http://www.w3.org/2000/svg" width="72" height="72" viewBox="0 0 72 72"><defs><style>.a{fill:rgba(255,255,255,0);}.b{fill:#f7c92b;}.c{fill:#f2b51d;}.d{fill:#f7e249;}.e{fill:#c91c24;}.f{fill:#e3faff;}</style></defs><g transform="translate(-126 -33)"><rect class="a" width="72" height="72" transform="translate(126 33)"/><g transform="translate(134.166 38)"><path class="b" d="M151.9,399.6a7.355,7.355,0,1,0-7.355,7.343A7.349,7.349,0,0,0,151.9,399.6Zm0,0" transform="translate(-119.927 -344.149)"/><path class="c" d="M181.868,392.258a7.358,7.358,0,0,0-2.138.316,7.341,7.341,0,0,1,0,14.053,7.345,7.345,0,1,0,2.138-14.37Zm0,0" transform="translate(-157.249 -344.149)"/><path class="b" d="M166.807,40.993a4.355,4.355,0,1,1,3.417-5.128A4.362,4.362,0,0,1,166.807,40.993Zm0,0" transform="translate(-141.328 -28.398)"/><path class="c" d="M190.734,35.866a4.362,4.362,0,0,0-5.136-3.412,4.456,4.456,0,0,0-.637.178,4.354,4.354,0,0,1,0,8.183,4.362,4.362,0,0,0,5.772-4.949Zm0,0" transform="translate(-161.838 -28.398)"/><path class="d" d="M42.836,133.435H6.4A5.912,5.912,0,0,1,2.722,122.9l1.17-.943a11.476,11.476,0,0,0,4.282-8.938V106.83a16.572,16.572,0,0,1,33.143,0v6.308a11.476,11.476,0,0,0,4.136,8.82l1.14.949a5.955,5.955,0,0,1,2.146,4.577v.059A5.9,5.9,0,0,1,42.836,133.435Zm0,0" transform="translate(0 -79.212)"/><path class="b" d="M186.63,122.9l-1.14-.949a11.477,11.477,0,0,1-4.136-8.82v-6.308a16.584,16.584,0,0,0-21.241-15.877,16.554,16.554,0,0,1,11.9,15.877v6.308a11.477,11.477,0,0,0,4.136,8.82l1.14.949a5.956,5.956,0,0,1,2.146,4.577v.059a5.9,5.9,0,0,1-5.9,5.893h9.338a5.9,5.9,0,0,0,5.9-5.893v-.059A5.955,5.955,0,0,0,186.63,122.9Zm0,0" transform="translate(-140.037 -79.209)"/><path class="e" d="M236.59,14.2a14.223,14.223,0,1,0-14.223,14.2A14.211,14.211,0,0,0,236.59,14.2Zm0,0" transform="translate(-182.178)"/><path class="e" d="M269.061,4.223a14.209,14.209,0,0,1-12.046,25.265A14.209,14.209,0,1,0,269.061,4.223Zm0,0" transform="translate(-225.055 -3.705)"/><path class="f" d="M302.47,71.21a.992.992,0,0,1-.993-.991V60.657l-.37.338a.992.992,0,1,1-1.338-1.465l2.032-1.85a.993.993,0,0,1,1.662.733V70.219A.992.992,0,0,1,302.47,71.21Zm0,0" transform="translate(-262.281 -50.379)"/></g></g></svg>