<svg xmlns="http://www.w3.org/2000/svg" width="72" height="72" viewBox="0 0 72 72"><defs><style>.a{fill:rgba(255,255,255,0);}.b{fill:#c69a85;}.c{fill:#950007;}.d{fill:#dfb7a4;}.e{fill:#c91c24;}.f{fill:#e0c8bf;}</style></defs><g transform="translate(-126 -33)"><rect class="a" width="72" height="72" transform="translate(126 33)"/><g transform="translate(131 37.818)"><path class="b" d="M53.776,61.8a7.891,7.891,0,0,0-3.019,6.645,24.086,24.086,0,0,0,1.255,8.782,8.456,8.456,0,0,0,8.372,5.685,8.455,8.455,0,0,0,8.372-5.685,24.085,24.085,0,0,0,1.255-8.782c0-9.709-11.821-9.99-16.235-6.645Z" transform="translate(-44.629 -52.524)"/><path class="b" d="M305.217,61.807a7.891,7.891,0,0,0-3.019,6.645,24.085,24.085,0,0,0,1.255,8.782,9.006,9.006,0,0,0,16.744,0,24.085,24.085,0,0,0,1.255-8.782c0-9.711-11.824-9.987-16.235-6.645Z" transform="translate(-265.713 -52.529)"/><path class="c" d="M49.478,274.948H42.7a12.36,12.36,0,0,0-11.787,8.69,12.36,12.36,0,0,0-11.787-8.69H12.338A12.352,12.352,0,0,0,0,287.286v.8A7.616,7.616,0,0,0,7.608,295.7H23.85a7.619,7.619,0,0,0,7.057-4.772,7.619,7.619,0,0,0,7.057,4.772H54.208a7.617,7.617,0,0,0,7.608-7.608v-.8A12.352,12.352,0,0,0,49.478,274.948Z" transform="translate(0 -241.636)"/><path class="d" d="M162.349.133c-7.992,0-12.764,4.2-12.764,11.246,0,3.853.2,8.3,1.711,12.069a11.89,11.89,0,0,0,22.106,0c1.507-3.77,1.711-8.216,1.711-12.069,0-7.042-4.771-11.246-12.764-11.246Z" transform="translate(-131.525)"/><path class="e" d="M104.266,282.981H94.718A16.6,16.6,0,0,0,78.139,299.56v1.133a9.933,9.933,0,0,0,9.922,9.922h22.863a9.933,9.933,0,0,0,9.922-9.922V299.56A16.6,16.6,0,0,0,104.266,282.981Z" transform="translate(-68.705 -248.699)"/><path class="e" d="M122.645,294.349a45.861,45.861,0,0,0,19.851,6.17v-.959a16.6,16.6,0,0,0-16.579-16.579H116.37a16.572,16.572,0,0,0-13.607,7.118C109.42,289.625,116.415,290.571,122.645,294.349Z" transform="translate(-90.356 -248.699)"/><path class="f" d="M162.349.133c-7.992,0-12.764,4.2-12.764,11.246a53.993,53.993,0,0,0,.265,5.836c5.92,2.121,11.909,2.958,16.793.891a30.275,30.275,0,0,1,8.319-2.121c.121-1.575.151-3.134.151-4.607,0-7.042-4.771-11.246-12.764-11.246Z" transform="translate(-131.525 0)"/><path class="c" d="M5.6,298.913c-1.548-6.1-.288-10.592,1.31-13.527A12.352,12.352,0,0,0,0,296.464v.8a7.616,7.616,0,0,0,7.608,7.608h1.51A13.772,13.772,0,0,1,5.6,298.913Z" transform="translate(0 -250.813)"/><path class="c" d="M439.171,279.253c2.879,7.286,4.881,11.533,5.686,18.752a7.6,7.6,0,0,0,3.107-6.129v-.8A12.36,12.36,0,0,0,439.171,279.253Z" transform="translate(-386.148 -245.421)"/><g transform="translate(6.128 7.374)"><path class="d" d="M53.565,77.253a7.937,7.937,0,0,0-2.808,6.478,24.086,24.086,0,0,0,1.255,8.782,8.484,8.484,0,0,0,8.641,5.681C57.583,93.5,52.255,84.12,53.565,77.253Z" transform="translate(-50.757 -75.183)"/><path class="d" d="M382.045,60.106c2.488,5.651,6.077,16,2.634,22.686a8.4,8.4,0,0,0,5.724-5.355,24.085,24.085,0,0,0,1.255-8.782C391.659,63.089,387.761,60.11,382.045,60.106Z" transform="translate(-342.048 -60.106)"/></g></g></g></svg>